# xmcd CD database file
#
# Track frame offsets:
#	150
#	21338
#	46093
#	67264
#	90849
#	115565
#	139900
#	159516
#	194196
#	225155
#	247863
#
# Disc length: 3541 seconds
#
# Revision: 0
# Processed by: cddbd v1.5.1PL0 Copyright (c) Steve Scherf et al.
# Submitted via: CDex 1.51
#
DISCID=870dd30b
DTITLE=Kleinhaut, Mark - Amphora
DYEAR=1999
DGENRE=Jazz
TTITLE0=Amphora
TTITLE1=A Million Notes from Now
TTITLE2=Suki's Web
TTITLE3=Flowers and Flames
TTITLE4=Illadroly
TTITLE5=Miss Knows (it all)
TTITLE6=Horse from the North
TTITLE7=Fourty-Nine
TTITLE8=Interlucent
TTITLE9=Another Spring
TTITLE10=We Never Knew
EXTD=YEAR: 1999
EXTT0=
EXTT1=
EXTT2=
EXTT3=
EXTT4=
EXTT5=
EXTT6=
EXTT7=
EXTT8=
EXTT9=
EXTT10=
PLAYORDER=
